<svg xmlns="http://www.w3.org/2000/svg" width="45" height="45" viewBox="0 0 45 45" fill="none">
  <g clip-path="url(#clip0_280_2369)">
    <path d="M22.5844 45C34.9642 45 45 34.9642 45 22.5844C45 10.2046 34.9642 0.168751 22.5844 0.168751C10.2046 0.168751 0.168747 10.2046 0.168747 22.5844C0.168747 34.9642 10.2046 45 22.5844 45Z" fill="#0091D3"/>
    <path d="M30.4523 15.2578C30.4031 14.7516 29.9672 14.3508 29.4469 14.3508C29.1023 14.3508 28.8 14.5195 28.6172 14.7867C28.2305 14.7305 27.8437 14.7023 27.457 14.7023C24.4055 14.7023 21.7055 16.4391 20.4187 19.2305C20.1164 19.8844 19.8 19.9969 19.2094 19.9969C19.1602 19.9969 19.118 19.9969 19.0547 19.9969L14.85 19.9758H14.4352C14.7727 15.4195 17.325 10.6242 20.4258 8.70469L21.8531 11.0039L23.9062 3.93047L16.8258 1.83516L18.1828 4.59141C12.5227 9.09141 9.71015 15.1453 9.80859 22.5914C9.90703 29.9672 12.7406 36 18.225 40.5281L16.8258 43.3406L23.9203 41.2102L21.8391 34.193L20.468 36.4922C17.2406 34.0875 14.4984 28.6664 14.4773 24.6375L19.8352 24.5812C19.8773 24.6797 19.9125 24.7852 19.9547 24.8766C20.0953 25.2422 20.2359 25.5867 20.3977 25.9242C21.7477 28.6875 24.5601 30.4664 27.5555 30.4664C28.0898 30.4664 28.6242 30.4102 29.1445 30.2906C32.8219 29.468 35.3883 26.2617 35.3672 22.493C35.3531 19.2867 33.3422 16.4109 30.4523 15.2578ZM28.9687 29.5102C28.5047 29.6156 28.0336 29.6648 27.5555 29.6648C24.8555 29.6648 22.3312 28.0547 21.1148 25.5727C20.9672 25.2703 20.8336 24.9328 20.7 24.5883C20.6297 24.4125 20.5594 24.2227 20.475 24.0258L20.3695 23.7727L13.6969 23.843L13.6828 24.2227C13.507 28.7297 16.6289 34.8891 20.3625 37.3992L20.7141 37.6312L21.593 36.1617L22.9289 40.6617L18.3656 42.0328L19.2305 40.3031L18.9773 40.0992C13.5281 35.7047 10.7086 29.8125 10.6102 22.5703C10.5117 15.2789 13.3102 9.37266 18.9352 5.01328L19.1953 4.81641L18.3516 3.12187L22.9148 4.47187L21.593 9.04219L20.707 7.62187L20.3766 7.80469C16.8117 9.75234 13.8445 15.2648 13.6195 20.3484L13.6055 20.7633L19.0477 20.7844C19.1039 20.7844 19.1602 20.7844 19.2164 20.7844C19.9266 20.7844 20.6508 20.6367 21.15 19.5539C22.3242 17.0086 24.6867 15.4969 27.4641 15.4969C27.7945 15.4969 28.132 15.525 28.4625 15.5672C28.7156 15.6023 28.9617 15.6445 29.2148 15.7008C29.5594 15.7781 29.8969 15.8906 30.2203 16.0242C32.7797 17.0648 34.5656 19.6383 34.5726 22.5C34.5797 25.8891 32.2805 28.7719 28.9687 29.5102Z" fill="white"/>
    <path d="M27.5414 20.5594C26.4234 20.5453 25.5445 21.3891 25.5305 22.5C25.5164 23.618 26.3672 24.4969 27.4711 24.518C28.5609 24.5391 29.475 23.6602 29.4961 22.5703C29.5172 21.4805 28.6383 20.5734 27.5414 20.5594ZM27.5062 24.307H27.4711C26.4867 24.2859 25.7203 23.4984 25.7344 22.5C25.7484 21.5086 26.5078 20.7633 27.5062 20.7633H27.5344C28.0125 20.7703 28.4555 20.9602 28.793 21.3047C29.1234 21.6422 29.2992 22.0922 29.2851 22.5562C29.2641 23.5266 28.4695 24.307 27.5062 24.307Z" fill="white"/>
    <path d="M30.5437 19.6664C29.7562 18.8508 28.7016 18.3937 27.5625 18.3797H27.4992C25.1719 18.3797 23.3226 20.1937 23.2945 22.507C23.2594 24.8625 25.0734 26.7469 27.4148 26.7891C27.443 26.7891 27.4711 26.7891 27.4922 26.7891C29.7703 26.7891 31.6687 24.9328 31.7109 22.6477C31.7461 21.5297 31.3242 20.475 30.5437 19.6664ZM27.4289 26.3883C25.3055 26.3461 23.6742 24.6516 23.6953 22.507C23.7234 20.3766 25.4109 18.7453 27.5555 18.7734C29.6648 18.8016 31.3594 20.5383 31.3172 22.6336C31.282 24.743 29.5312 26.4305 27.4289 26.3883Z" fill="white"/>
  </g>
  <defs>
    <clipPath id="clip0_280_2369">
      <rect width="45" height="45" fill="white"/>
    </clipPath>
  </defs>
</svg>